<?xml version="1.0" encoding="utf-8"?>
<!-- Generated by Mocodo 4.1.2 -->
<svg width="422" height="263" viewBox="0 0 422 263" xmlns="http://www.w3.org/2000/svg">
<rect x="0" y="0" width="422" height="263" fill="#ffffbf" stroke="none" stroke-width="0"/>

<!-- Association GERER -->
<g>
	<line x1="197" y1="195" x2="197" y2="60" stroke="#f46d43" stroke-width="2"/>
	<line x1="55" y1="60" x2="197" y2="60" stroke="#f46d43" stroke-width="2"/>
	<line x1="335" y1="60" x2="197" y2="60" stroke="#f46d43" stroke-width="2"/>
	<g>
		<path d="M211 35 a14 14 90 0 1 14 14 V60 h-56 V49 a14 14 90 0 1 14 -14" fill="#fdae61" stroke="#fdae61" stroke-width="0"/>
		<path d="M225 60 v11 a14 14 90 0 1 -14 14 H183 a14 14 90 0 1 -14 -14 V60 H56" fill="#fee090" stroke="#fee090" stroke-width="0"/>
		<rect x="169" y="35" width="56" height="50" fill="none" rx="14" stroke="#f46d43" stroke-width="2"/>
		<line x1="169" y1="60" x2="225" y2="60" stroke="#f46d43" stroke-width="1"/>
		<text x="176" y="52.75" fill="#000000" font-family="Verdana" font-size="12">GÉRER</text>
	</g>
	<text x="202" y="128" fill="#4575b4" font-family="Verdana" font-size="12">1,1</text>
	<text x="97" y="77" fill="#4575b4" font-family="Verdana" font-size="12">1,1</text>
	<text x="230" y="77" fill="#4575b4" font-family="Verdana" font-size="12">0,N</text>
</g>

<!-- Association APPARTENIR -->
<g>
	<line x1="55" y1="60" x2="55" y2="195" stroke="#f46d43" stroke-width="2"/>
	<line x1="197" y1="195" x2="55" y2="195" stroke="#f46d43" stroke-width="2"/>
	<g>
		<path d="M87 170 a14 14 90 0 1 14 14 V195 h-92 V184 a14 14 90 0 1 14 -14" fill="#fdae61" stroke="#fdae61" stroke-width="0"/>
		<path d="M101 195 v11 a14 14 90 0 1 -14 14 H23 a14 14 90 0 1 -14 -14 V195 H92" fill="#fee090" stroke="#fee090" stroke-width="0"/>
		<rect x="9" y="170" width="92" height="50" fill="none" rx="14" stroke="#f46d43" stroke-width="2"/>
		<line x1="9" y1="195" x2="101" y2="195" stroke="#f46d43" stroke-width="1"/>
		<text x="16" y="187.75" fill="#000000" font-family="Verdana" font-size="12">APPARTENIR</text>
	</g>
	<text x="60" y="111" fill="#4575b4" font-family="Verdana" font-size="12">0,N</text>
	<text x="107" y="212" fill="#4575b4" font-family="Verdana" font-size="12">1,1</text>
</g>

<!-- Entity LIGUE -->
<g>
	<g>
		<rect x="18" y="26" width="74" height="25" fill="#abd9e9" stroke="none" stroke-width="0" opacity="1"/>
		<rect x="18" y="51" width="74" height="43" fill="#e0f3f8" stroke="none" stroke-width="0" opacity="1"/>
		<rect x="18" y="26" width="74" height="68" fill="none" stroke="#74add1" stroke-width="2" opacity="1"/>
		<line x1="18" y1="51" x2="92" y2="51" stroke="#74add1" stroke-width="1"/>
	</g>
	<text x="39" y="43.75" fill="#000000" font-family="Verdana" font-size="12">Ligue</text>
	<text x="23" y="68.8" fill="#000000" font-family="Verdana" font-size="12">ID_ligue</text>
	<line x1="23" y1="71" x2="75" y2="71" stroke="#000000" stroke-width="1"/>
	<text x="23" y="85.8" fill="#000000" font-family="Verdana" font-size="12">nom_ligue</text>
</g>

<!-- Entity SUPER_ADMIN -->
<g>
	<g>
		<rect x="257" y="9" width="156" height="25" fill="#abd9e9" stroke="none" stroke-width="0" opacity="1"/>
		<rect x="257" y="34" width="156" height="77" fill="#e0f3f8" stroke="none" stroke-width="0" opacity="1"/>
		<rect x="257" y="9" width="156" height="102" fill="none" stroke="#74add1" stroke-width="2" opacity="1"/>
		<line x1="257" y1="34" x2="413" y2="34" stroke="#74add1" stroke-width="1"/>
	</g>
	<text x="294" y="26.75" fill="#000000" font-family="Verdana" font-size="12">Super_Admin</text>
	<text x="262" y="51.8" fill="#000000" font-family="Verdana" font-size="12">ID_super_Admin</text>
	<line x1="262" y1="54" x2="364" y2="54" stroke="#000000" stroke-width="1"/>
	<text x="262" y="68.8" fill="#000000" font-family="Verdana" font-size="12">nom_super_Admin</text>
	<text x="262" y="85.8" fill="#000000" font-family="Verdana" font-size="12">prénom_super_Admin</text>
	<text x="262" y="102.8" fill="#000000" font-family="Verdana" font-size="12">password_super_Admin</text>
</g>

<!-- Entity EMPLOYE -->
<g>
	<g>
		<rect x="133" y="136" width="128" height="25" fill="#abd9e9" stroke="none" stroke-width="0" opacity="1"/>
		<rect x="133" y="161" width="128" height="93" fill="#e0f3f8" stroke="none" stroke-width="0" opacity="1"/>
		<rect x="133" y="136" width="128" height="118" fill="none" stroke="#74add1" stroke-width="2" opacity="1"/>
		<line x1="133" y1="161" x2="261" y2="161" stroke="#74add1" stroke-width="1"/>
	</g>
	<text x="171" y="153.75" fill="#000000" font-family="Verdana" font-size="12">Employé</text>
	<text x="138" y="178.8" fill="#000000" font-family="Verdana" font-size="12">ID_employé</text>
	<line x1="138" y1="181" x2="212" y2="181" stroke="#000000" stroke-width="1"/>
	<text x="138" y="195.8" fill="#000000" font-family="Verdana" font-size="12">nom_employe</text>
	<text x="138" y="212.8" fill="#000000" font-family="Verdana" font-size="12">prenom_employe</text>
	<text x="138" y="229.8" fill="#000000" font-family="Verdana" font-size="12">mail_employé</text>
	<text x="138" y="246.8" fill="#000000" font-family="Verdana" font-size="12">password_employé</text>
</g>
</svg>