<?xml version="1.0" encoding="utf-8"?>
<!-- Generated by Mocodo 4.1.2 -->
<svg width="243" height="247" viewBox="0 0 243 247" xmlns="http://www.w3.org/2000/svg">
<rect x="0" y="0" width="243" height="247" fill="#f7f7f7" stroke="none" stroke-width="0"/>

<!-- Association APPARTENIR -->
<g>
	<line x1="170" y1="170" x2="170" y2="43" stroke="#5aae61" stroke-width="2"/>
	<line x1="46" y1="43" x2="170" y2="43" stroke="#5aae61" stroke-width="2"/>
	<g>
		<path d="M202 18 a14 14 90 0 1 14 14 V43 h-92 V32 a14 14 90 0 1 14 -14" fill="#a6dba0" stroke="#a6dba0" stroke-width="0"/>
		<path d="M216 43 v11 a14 14 90 0 1 -14 14 H138 a14 14 90 0 1 -14 -14 V43 H92" fill="#d9f0d3" stroke="#d9f0d3" stroke-width="0"/>
		<rect x="124" y="18" width="92" height="50" fill="none" rx="14" stroke="#5aae61" stroke-width="2"/>
		<line x1="124" y1="43" x2="216" y2="43" stroke="#5aae61" stroke-width="1"/>
		<text x="131" y="35.75" fill="#000000" font-family="Verdana" font-size="12">APPARTENIR</text>
	</g>
	<text x="175" y="94" fill="#762a83" font-family="Verdana" font-size="12">0,1</text>
	<text x="88" y="60" fill="#762a83" font-family="Verdana" font-size="12">0,N</text>
</g>

<!-- Association GERER -->
<g>
	<line x1="170" y1="170" x2="46" y2="170" stroke="#5aae61" stroke-width="2"/>
	<line x1="46" y1="43" x2="46" y2="170" stroke="#5aae61" stroke-width="2"/>
	<g>
		<path d="M60 145 a14 14 90 0 1 14 14 V170 h-56 V159 a14 14 90 0 1 14 -14" fill="#a6dba0" stroke="#a6dba0" stroke-width="0"/>
		<path d="M74 170 v11 a14 14 90 0 1 -14 14 H32 a14 14 90 0 1 -14 -14 V170 H56" fill="#d9f0d3" stroke="#d9f0d3" stroke-width="0"/>
		<rect x="18" y="145" width="56" height="50" fill="none" rx="14" stroke="#5aae61" stroke-width="2"/>
		<line x1="18" y1="170" x2="74" y2="170" stroke="#5aae61" stroke-width="1"/>
		<text x="25" y="162.75" fill="#000000" font-family="Verdana" font-size="12">GERER</text>
	</g>
	<text x="80" y="187" fill="#762a83" font-family="Verdana" font-size="12">0,1</text>
	<text x="51" y="94" fill="#762a83" font-family="Verdana" font-size="12">1,1</text>
</g>

<!-- Entity LIGUE -->
<g>
	<g>
		<rect x="9" y="9" width="74" height="25" fill="#c2a5cf" stroke="none" stroke-width="0" opacity="1"/>
		<rect x="9" y="34" width="74" height="43" fill="#e7d4e8" stroke="none" stroke-width="0" opacity="1"/>
		<rect x="9" y="9" width="74" height="68" fill="none" stroke="#9970ab" stroke-width="2" opacity="1"/>
		<line x1="9" y1="34" x2="83" y2="34" stroke="#9970ab" stroke-width="1"/>
	</g>
	<text x="30" y="26.75" fill="#000000" font-family="Verdana" font-size="12">Ligue</text>
	<text x="14" y="51.8" fill="#000000" font-family="Verdana" font-size="12">ID_ligue</text>
	<line x1="14" y1="54" x2="66" y2="54" stroke="#000000" stroke-width="1"/>
	<text x="14" y="68.8" fill="#000000" font-family="Verdana" font-size="12">nom_ligue</text>
</g>

<!-- Entity EMPLOYE -->
<g>
	<g>
		<rect x="106" y="102" width="128" height="25" fill="#c2a5cf" stroke="none" stroke-width="0" opacity="1"/>
		<rect x="106" y="127" width="128" height="111" fill="#e7d4e8" stroke="none" stroke-width="0" opacity="1"/>
		<rect x="106" y="102" width="128" height="136" fill="none" stroke="#9970ab" stroke-width="2" opacity="1"/>
		<line x1="106" y1="127" x2="234" y2="127" stroke="#9970ab" stroke-width="1"/>
	</g>
	<text x="144" y="119.75" fill="#000000" font-family="Verdana" font-size="12">Employé</text>
	<text x="111" y="144.8" fill="#000000" font-family="Verdana" font-size="12">ID_employé</text>
	<line x1="111" y1="147" x2="185" y2="147" stroke="#000000" stroke-width="1"/>
	<text x="111" y="161.8" fill="#000000" font-family="Verdana" font-size="12">nom_employé</text>
	<text x="111" y="178.8" fill="#000000" font-family="Verdana" font-size="12">prénom_employé</text>
	<text x="111" y="195.8" fill="#000000" font-family="Verdana" font-size="12">mail_employé</text>
	<text x="111" y="212.8" fill="#000000" font-family="Verdana" font-size="12">password_employé</text>
	<text x="111" y="229.8" fill="#000000" font-family="Verdana" font-size="12">statut_employé</text>
</g>
</svg>