<?xml version="1.0" encoding="utf-8"?>
<!-- Generated by Mocodo 4.1.2 -->
<svg width="328" height="136" viewBox="0 0 328 136" xmlns="http://www.w3.org/2000/svg">
<rect x="0" y="0" width="328" height="136" fill="#f7f7f7" stroke="none" stroke-width="0"/>

<!-- Association APPARTENIR -->
<g>
	<line x1="48" y1="68" x2="167" y2="68" stroke="#5aae61" stroke-width="2"/>
	<line x1="283" y1="68" x2="167" y2="68" stroke="#5aae61" stroke-width="2"/>
	<g>
		<path d="M199 43 a14 14 90 0 1 14 14 V68 h-92 V57 a14 14 90 0 1 14 -14" fill="#a6dba0" stroke="#a6dba0" stroke-width="0"/>
		<path d="M213 68 v11 a14 14 90 0 1 -14 14 H135 a14 14 90 0 1 -14 -14 V68 H92" fill="#d9f0d3" stroke="#d9f0d3" stroke-width="0"/>
		<rect x="121" y="43" width="92" height="50" fill="none" rx="14" stroke="#5aae61" stroke-width="2"/>
		<line x1="121" y1="68" x2="213" y2="68" stroke="#5aae61" stroke-width="1"/>
		<text x="128" y="60.75" fill="#000000" font-family="Verdana" font-size="12">APPARTENIR</text>
	</g>
	<text x="92" y="85" fill="#762a83" font-family="Verdana" font-size="12">0,1</text>
	<text x="218" y="85" fill="#762a83" font-family="Verdana" font-size="12">O,N</text>
</g>

<!-- Entity EMPLOYE -->
<g>
	<g>
		<rect x="9" y="9" width="78" height="25" fill="#c2a5cf" stroke="none" stroke-width="0" opacity="1"/>
		<rect x="9" y="34" width="78" height="93" fill="#e7d4e8" stroke="none" stroke-width="0" opacity="1"/>
		<rect x="9" y="9" width="78" height="118" fill="none" stroke="#9970ab" stroke-width="2" opacity="1"/>
		<line x1="9" y1="34" x2="87" y2="34" stroke="#9970ab" stroke-width="1"/>
	</g>
	<text x="20" y="26.75" fill="#000000" font-family="Verdana" font-size="12">EMPLOYE</text>
	<text x="14" y="51.8" fill="#000000" font-family="Verdana" font-size="12">id employe</text>
	<line x1="14" y1="54" x2="81" y2="54" stroke="#000000" stroke-width="1"/>
	<text x="14" y="68.8" fill="#000000" font-family="Verdana" font-size="12">nom</text>
	<text x="14" y="85.8" fill="#000000" font-family="Verdana" font-size="12">prenom</text>
	<text x="14" y="102.8" fill="#000000" font-family="Verdana" font-size="12">mail</text>
	<text x="14" y="119.8" fill="#000000" font-family="Verdana" font-size="12">password</text>
</g>

<!-- Entity LIGUE -->
<g>
	<g>
		<rect x="247" y="34" width="72" height="25" fill="#c2a5cf" stroke="none" stroke-width="0" opacity="1"/>
		<rect x="247" y="59" width="72" height="43" fill="#e7d4e8" stroke="none" stroke-width="0" opacity="1"/>
		<rect x="247" y="34" width="72" height="68" fill="none" stroke="#9970ab" stroke-width="2" opacity="1"/>
		<line x1="247" y1="59" x2="319" y2="59" stroke="#9970ab" stroke-width="1"/>
	</g>
	<text x="264" y="51.75" fill="#000000" font-family="Verdana" font-size="12">LIGUE</text>
	<text x="252" y="76.8" fill="#000000" font-family="Verdana" font-size="12">id ligue</text>
	<line x1="252" y1="79" x2="297" y2="79" stroke="#000000" stroke-width="1"/>
	<text x="252" y="93.8" fill="#000000" font-family="Verdana" font-size="12">nom ligue</text>
</g>
</svg>