<?xml version="1.0" encoding="utf-8"?>
<!-- Generated by Mocodo 4.1.2 -->
<svg width="243" height="229" viewBox="0 0 243 229" xmlns="http://www.w3.org/2000/svg">
<rect x="0" y="0" width="243" height="229" fill="#ffffbf" stroke="none" stroke-width="0"/>

<!-- Association APPARTENIR -->
<g>
	<line x1="197" y1="43" x2="73" y2="43" stroke="#f46d43" stroke-width="2"/>
	<line x1="73" y1="161" x2="73" y2="43" stroke="#f46d43" stroke-width="2"/>
	<g>
		<path d="M105 18 a14 14 90 0 1 14 14 V43 h-92 V32 a14 14 90 0 1 14 -14" fill="#fdae61" stroke="#fdae61" stroke-width="0"/>
		<path d="M119 43 v11 a14 14 90 0 1 -14 14 H41 a14 14 90 0 1 -14 -14 V43 H92" fill="#fee090" stroke="#fee090" stroke-width="0"/>
		<rect x="27" y="18" width="92" height="50" fill="none" rx="14" stroke="#f46d43" stroke-width="2"/>
		<line x1="27" y1="43" x2="119" y2="43" stroke="#f46d43" stroke-width="1"/>
		<text x="34" y="35.75" fill="#000000" font-family="Verdana" font-size="12">APPARTENIR</text>
	</g>
	<text x="134" y="60" fill="#4575b4" font-family="Verdana" font-size="12">0,1</text>
	<text x="78" y="94" fill="#4575b4" font-family="Verdana" font-size="12">0,N</text>
</g>

<!-- Association GERER -->
<g>
	<line x1="197" y1="43" x2="197" y2="161" stroke="#f46d43" stroke-width="2"/>
	<path d="M73 161 C137.67 127.67 179 127.67 197 161" fill="none" stroke="#f46d43" stroke-width="2"/>
	<path d="M73 161 C138.33 194.33 179.67 194.33 197 161" fill="none" stroke="#f46d43" stroke-width="2"/>
	<g>
		<path d="M211 136 a14 14 90 0 1 14 14 V161 h-56 V150 a14 14 90 0 1 14 -14" fill="#fdae61" stroke="#fdae61" stroke-width="0"/>
		<path d="M225 161 v11 a14 14 90 0 1 -14 14 H183 a14 14 90 0 1 -14 -14 V161 H56" fill="#fee090" stroke="#fee090" stroke-width="0"/>
		<rect x="169" y="136" width="56" height="50" fill="none" rx="14" stroke="#f46d43" stroke-width="2"/>
		<line x1="169" y1="161" x2="225" y2="161" stroke="#f46d43" stroke-width="1"/>
		<text x="176" y="153.75" fill="#000000" font-family="Verdana" font-size="12">GERER</text>
	</g>
	<text x="202" y="94" fill="#4575b4" font-family="Verdana" font-size="12">1,N</text>
	<text x="142" y="155" fill="#4575b4" font-family="Verdana" font-size="12">0,1</text>
	<text x="142" y="176" fill="#4575b4" font-family="Verdana" font-size="12">0,N</text>
</g>

<!-- Entity LIGUE -->
<g>
	<g>
		<rect x="160" y="9" width="74" height="25" fill="#abd9e9" stroke="none" stroke-width="0" opacity="1"/>
		<rect x="160" y="34" width="74" height="43" fill="#e0f3f8" stroke="none" stroke-width="0" opacity="1"/>
		<rect x="160" y="9" width="74" height="68" fill="none" stroke="#74add1" stroke-width="2" opacity="1"/>
		<line x1="160" y1="34" x2="234" y2="34" stroke="#74add1" stroke-width="1"/>
	</g>
	<text x="181" y="26.75" fill="#000000" font-family="Verdana" font-size="12">Ligue</text>
	<text x="165" y="51.8" fill="#000000" font-family="Verdana" font-size="12">id_ligue</text>
	<line x1="165" y1="54" x2="213" y2="54" stroke="#000000" stroke-width="1"/>
	<text x="165" y="68.8" fill="#000000" font-family="Verdana" font-size="12">nom_ligue</text>
</g>

<!-- Entity EMPLOYE -->
<g>
	<g>
		<rect x="9" y="102" width="128" height="25" fill="#abd9e9" stroke="none" stroke-width="0" opacity="1"/>
		<rect x="9" y="127" width="128" height="93" fill="#e0f3f8" stroke="none" stroke-width="0" opacity="1"/>
		<rect x="9" y="102" width="128" height="118" fill="none" stroke="#74add1" stroke-width="2" opacity="1"/>
		<line x1="9" y1="127" x2="137" y2="127" stroke="#74add1" stroke-width="1"/>
	</g>
	<text x="47" y="119.75" fill="#000000" font-family="Verdana" font-size="12">Employe</text>
	<text x="14" y="144.8" fill="#000000" font-family="Verdana" font-size="12">id_employé</text>
	<line x1="14" y1="147" x2="85" y2="147" stroke="#000000" stroke-width="1"/>
	<text x="14" y="161.8" fill="#000000" font-family="Verdana" font-size="12">nom_employé</text>
	<text x="14" y="178.8" fill="#000000" font-family="Verdana" font-size="12">prenom_employé</text>
	<text x="14" y="195.8" fill="#000000" font-family="Verdana" font-size="12">mail_employé</text>
	<text x="14" y="212.8" fill="#000000" font-family="Verdana" font-size="12">password_employé</text>
</g>
</svg>